<svg version="1.1" xmlns="http://www.w3.org/2000/svg" style="display: block;" viewBox="0 0 2048 2048" width="1024" height="1024" preserveAspectRatio="none">
<path transform="translate(0,0)" fill="rgb(37,158,213)" d="M 1002.96 559.431 C 1007.92 558.613 1021.14 558.69 1026.68 558.709 C 1070.91 559.006 1114.89 565.386 1157.38 577.67 C 1277.13 613.104 1377.97 694.531 1437.83 804.131 C 1497.92 914.716 1511.46 1044.69 1475.44 1165.29 C 1440.91 1281.18 1358.23 1384.97 1251.67 1442.56 C 1140.57 1503.63 1009.61 1517.56 888.158 1481.21 C 959.639 1439.84 1013.21 1402.4 1078.48 1352.77 C 1085.37 1359.65 1093.85 1371.01 1101.21 1378.94 C 1131.4 1356.58 1169.58 1322.98 1198.39 1298.27 C 1172.47 1265.58 1146.05 1234.32 1119.6 1202.15 C 1087.14 1228.91 1054.48 1255.43 1021.62 1281.69 C 1026.05 1288.12 1037.11 1300.41 1042.6 1306.85 C 1034.8 1312.56 1026.67 1318.77 1019.26 1325 C 958.185 1376.31 892.364 1416.21 824.112 1456.77 C 802.069 1446.33 780.824 1434.27 760.549 1420.71 C 753.025 1415.99 741.039 1406.61 734.377 1401.09 C 764.892 1383.16 796.046 1368.59 827.275 1349.68 C 925.401 1290.35 1016.27 1219.77 1098.03 1139.37 C 1071.98 1139.78 1043.34 1139.56 1017.29 1139.22 C 998.784 1157.82 978.914 1174.71 959.101 1191.9 C 876.668 1263.42 794.997 1320.69 696.79 1368.57 C 674.487 1346.9 654.1 1323.35 635.856 1298.17 C 657.379 1286.48 682.905 1277.13 704.615 1265.78 C 766.877 1233.25 850.711 1186.93 902.57 1140 L 821.601 1139.45 C 771.718 1178.35 671.078 1235.56 611.094 1257.7 C 579.174 1204.97 557.738 1122.9 553.643 1061.55 C 545.239 936.644 586.843 813.517 669.288 719.303 C 739.055 639.823 833.499 586.085 937.465 566.711 C 959.994 562.559 980.172 560.897 1002.96 559.431 z M 1024.99 1007.96 C 1057.89 982.998 1088.4 953.564 1120.88 927.94 C 1125.98 923.917 1131.34 919.499 1136.24 915.257 C 1166.23 890.26 1198.08 864.364 1227.48 838.877 L 820.032 837.872 C 862.523 871.777 904.599 908.726 946.757 943.31 C 971.767 963.827 998.966 989.096 1024.99 1007.96 z M 1243.77 863.007 C 1214.59 886.412 1185.8 910.296 1157.41 934.649 C 1144.55 945.496 1124.97 962.809 1111.66 972.174 C 1133.12 990.57 1154.71 1010.77 1176.08 1029.68 C 1195.8 1048.49 1223.74 1072.92 1244.85 1090.39 L 1244.22 917.242 C 1244.12 907.811 1244.88 869.056 1243.77 863.007 z M 823.516 1112.89 L 1140.5 1113.04 C 1169.58 1113 1198.66 1113.26 1227.73 1113.82 L 1138.68 1034.23 C 1127 1023.79 1100.85 1001.16 1091.13 990.364 C 1078.63 1001.81 1065.62 1011.98 1052.04 1023.44 C 1016.41 1053.52 995.874 1018.74 968.306 998.739 C 965.788 996.913 960.608 991.975 957.979 990.658 C 921.847 1027.37 879.693 1060.46 842.109 1095.84 C 836.091 1101.5 829.738 1107.52 823.516 1112.89 z M 804.133 861.909 C 803.438 936.608 803.012 1016.61 804.343 1091.18 C 827.325 1069.68 852.352 1049.04 874.85 1027.69 C 895.543 1010.12 915.523 989.648 936.084 972.384 C 909.918 949.709 883.524 927.298 856.906 905.155 C 840.474 891.405 821.238 874.845 804.133 861.909 z"/>
</svg>